<svg width="139" height="14" viewBox="0 0 139 14" fill="none" xmlns="http://www.w3.org/2000/svg">
<path d="M120.521 13.7878C120.119 10.53 119.003 7.51981 117.279 5.11983C116.826 4.48665 116.34 3.91218 115.828 3.39389C115.331 3.83048 114.868 4.30026 114.44 4.80324C116.518 6.89428 118.018 10.0883 118.522 13.7878H120.521V13.7878Z" fill="#46BEAA"/>
<path d="M116.779 13.7879C116.402 11.34 115.534 9.08483 114.235 7.25857C113.954 6.86301 113.656 6.49314 113.347 6.15152C112.965 6.73972 112.626 7.35875 112.335 8.00603C113.517 9.50351 114.387 11.5096 114.785 13.7879H116.779Z" fill="#46BEAA"/>
<path d="M111.648 9.96973C111.333 11.1839 111.165 12.4652 111.165 13.7879H113.036C112.766 12.3903 112.297 11.0935 111.648 9.96973Z" fill="#46BEAA"/>
<path d="M128.141 13.7879C128.745 8.66716 130.986 5.21866 132.909 3.13789C133.068 2.96788 133.227 2.80294 133.386 2.64308C133.12 2.4553 132.844 2.27767 132.565 2.10766C132.438 2.23707 132.31 2.36902 132.188 2.50351C130.546 4.27471 128.691 6.98732 127.706 10.8038C127.404 9.26348 126.981 7.77649 126.442 6.36055C127.51 4.03364 128.837 2.23707 130.056 0.90741C129.728 0.788146 129.392 0.68157 129.053 0.585144C128.003 1.77271 126.901 3.28507 125.95 5.15776C125.264 3.6048 124.43 2.15333 123.461 0.838897C123.302 0.625745 123.143 0.41513 122.979 0.212128C122.229 0.323779 121.499 0.496331 120.793 0.717095C122.487 2.62531 123.865 5.04104 124.811 7.79933C124.462 8.7712 124.162 9.81412 123.925 10.9357C123.258 7.97695 122.062 5.2618 120.397 3.0034C119.97 2.42485 119.521 1.88689 119.052 1.39208C118.424 1.68643 117.82 2.02392 117.247 2.40201C119.923 5.0385 121.817 9.10361 122.354 13.7853H124.472C124.631 12.1994 124.92 10.7454 125.306 9.41827C125.681 10.8088 125.947 12.2704 126.093 13.7853H128.141V13.7879Z" fill="#46BEAA"/>
<path d="M131.55 13.7854C132.124 9.82913 133.885 7.14059 135.409 5.49383C135.514 5.38086 135.62 5.27041 135.725 5.16498C135.519 4.92148 135.306 4.683 135.082 4.45456C132.935 6.59836 131.138 9.71115 130.579 13.7879H131.55V13.7854Z" fill="#46BEAA"/>
<path d="M135.306 13.7879C135.771 11.2754 136.815 9.43405 137.83 8.16365C137.685 7.83961 137.529 7.5233 137.36 7.21213C135.95 8.84514 134.794 11.0362 134.322 13.7879H135.306V13.7879Z" fill="#46BEAA"/>
<path d="M138.828 11.4545C138.511 12.1585 138.249 12.9372 138.064 13.7879H139C139.002 12.9932 138.943 12.2145 138.828 11.4545Z" fill="#46BEAA"/>
<path d="M50.7027 0.424225H47.717V13.5757H55.9037V10.9836H50.7027V0.424225Z" fill="#46BEAA"/>
<path d="M72.6715 0.424225H71.5755V13.5757H78.8266V12.6132H72.6715V0.424225Z" fill="#46BEAA"/>
<path d="M81.1656 0.424225H79.9961V13.5757H81.1656V0.424225Z" fill="#46BEAA"/>
<path d="M98.6335 12.6132V7.30494H104.594V6.37099H98.6335V1.38676H105.033V0.424225H97.5391V13.5757H105.258V12.6132H98.6335Z" fill="#46BEAA"/>
<path d="M93.891 12.6132H93.6682L85.9291 0.424225H83.9725V13.5757H85.0574V1.38676H85.3189L93.058 13.5757H94.9662V0.424225H93.891V12.6132Z" fill="#46BEAA"/>
<path d="M13.5539 10.9836H13.3313L11.1239 0.786367H8.0065L6.04118 10.9836H5.75073L3.069 0.424225H0L3.29167 13.5757H7.89032L9.54583 5.56094L11.3272 13.5757H16.0227L18.9464 0.424225H15.8678L13.5539 10.9836Z" fill="#46BEAA"/>
<path d="M67.6615 2.19324C66.243 0.794893 64.3806 0.202534 62.2479 0.212245H57.3072V13.7879H62.2479C63.4542 13.7879 64.506 13.6034 65.4034 13.2247C67.1018 12.5352 68.3853 11.234 69.0222 9.58313C69.3792 8.67032 69.495 7.72838 69.4661 6.77672C69.4661 5.06763 68.8871 3.40709 67.6615 2.19324ZM66.0693 8.79656C65.6929 9.78706 64.9885 10.4959 64.0042 10.8747C63.5024 11.0689 62.9427 11.1563 62.3058 11.1563H60.2986V2.84386H62.3058C62.9427 2.84386 63.5024 2.93126 64.0042 3.09634C64.9981 3.43622 65.6929 4.13539 66.0693 5.11618C66.4456 6.15523 66.4553 7.7478 66.0693 8.79656Z" fill="#46BEAA"/>
<path d="M29.3326 0.590333C27.6023 -0.196778 24.7709 -0.196778 23.0406 0.590333C21.3201 1.32945 20.0322 2.67329 19.403 4.3435C19.0393 5.2746 18.9213 6.21529 18.9508 7.18478C18.9704 9.71889 20.5336 12.2722 22.9914 13.3665C24.7316 14.2112 27.6613 14.2112 29.4014 13.3665C31.8593 12.2722 33.4224 9.71889 33.4421 7.18478C33.5207 5.37058 32.8915 3.518 31.6036 2.16455C30.9843 1.50223 30.2371 0.983888 29.3326 0.590333ZM26.1964 11.2931C23.6108 11.2931 22.1263 9.30614 22.1263 7.0024C22.1263 4.61227 23.5223 2.71169 26.1964 2.71169C28.4675 2.71169 30.2666 4.23792 30.2666 7.0024C30.2666 9.32534 28.7526 11.2931 26.1964 11.2931Z" fill="#46BEAA"/>
<path d="M44.9549 7.38872C45.4531 6.697 45.6681 5.67863 45.629 4.66027C45.629 3.68033 45.4043 2.86372 44.9646 2.20082C43.9192 0.682882 42.0921 0.231342 40.1477 0.212128H34.8521V13.5758H37.881V9.47348C37.9396 9.47348 40.1087 9.47348 40.1771 9.47348L43.0398 13.5758H46.5474L43.1082 8.8298C43.8899 8.50315 44.5054 8.0324 44.9549 7.38872ZM42.1898 5.97646C41.7892 6.65857 41.115 6.98521 40.2845 6.98521H37.8712V2.81569H40.2943C40.734 2.81569 41.115 2.82529 41.4375 2.99822C41.7599 3.17115 42.0139 3.42094 42.1898 3.73798C42.5611 4.35284 42.5708 5.35199 42.1898 5.97646Z" fill="#46BEAA"/>
</svg>
